<svg width="204" height="186" viewBox="0 0 204 186" fill="none" xmlns="http://www.w3.org/2000/svg">
<path fill-rule="evenodd" clip-rule="evenodd" d="M162.847 74.6271C164.599 72.5711 165.784 70.0515 165.586 67.2281C165.015 59.0933 153.691 60.8829 151.488 64.9886C149.286 69.0944 149.547 79.509 152.394 80.2428C153.53 80.5355 155.948 79.8186 158.41 78.3349L156.865 89.2657H165.988L162.847 74.6271Z" fill="#B28B67"/>
<path fill-rule="evenodd" clip-rule="evenodd" d="M155.092 60.517C156.339 60.1369 158.148 60.008 158.909 60.0952C158.476 59.0577 158.305 57.9018 158.445 56.7763C158.581 55.6826 159.069 54.7515 159.521 53.7757C159.73 53.3259 159.966 52.8786 160.318 52.5346C160.676 52.1841 161.13 51.9527 161.606 51.8424C162.093 51.7294 162.603 51.7388 163.09 51.8413C163.306 51.8867 163.5 51.9853 163.711 52.0402C163.928 52.0964 164.033 51.9607 164.191 51.8244C164.57 51.4959 165.126 51.3338 165.605 51.2757C166.143 51.2106 166.702 51.2918 167.215 51.4687C167.714 51.6409 168.194 51.9206 168.555 52.328C168.716 52.5093 168.862 52.7157 168.957 52.9436C168.996 53.0371 169.002 53.0925 169.096 53.1268C169.182 53.1585 169.283 53.1594 169.372 53.1896C170.233 53.4813 170.97 54.1468 171.371 55.0013C171.605 55.4997 171.715 56.3774 171.685 57.3611C171.655 58.3448 170.767 60.9116 169.936 61.8479C169.194 62.6836 168.104 63.235 167.052 63.4764C167.751 64.2745 168.215 65.2718 168.559 66.2861C168.932 67.3878 169.163 68.5326 169.249 69.699C169.33 70.8072 169.337 71.9791 169.077 73.0637C168.834 74.0779 168.315 74.9099 167.447 75.4378C167.05 75.6796 166.622 75.8612 166.192 76.0272C165.768 76.1908 165.343 76.3499 164.899 76.4417C164.058 76.6154 163.09 76.5856 162.443 75.9167C162.21 75.6756 161.953 75.3726 161.783 75.078C161.722 74.9721 161.685 74.9028 161.759 74.7993C161.848 74.6753 161.992 74.5803 162.107 74.4832C162.759 73.9301 163.163 73.1917 163.265 72.3142C163.368 71.4238 163.129 70.2745 162.263 69.886C161.195 69.4063 160.018 69.9569 159.068 70.4701C158.665 69.0455 157.836 67.7628 156.536 67.1093C155.099 66.3863 153.449 66.3017 151.972 65.6814C151.587 65.5198 151.195 65.3363 150.911 65.007C150.793 64.8693 150.654 64.6908 150.607 64.5087C150.545 64.2696 150.699 64.0691 150.818 63.8827C151.45 62.8942 153.845 60.8972 155.092 60.517Z" fill="#BABACA"/>
<path fill-rule="evenodd" clip-rule="evenodd" d="M120.797 127.695C118.068 123.993 111.246 126.444 111.25 129.508C111.261 137.553 118.603 175.749 118.986 178.16C119.369 180.572 123.476 181.36 123.715 178.347C124.096 173.553 124.802 156.933 124.095 149.201C123.889 146.942 123.671 144.759 123.451 142.714C127.31 149.646 133.178 159.444 141.054 172.108L145.432 170.108C141.994 158.781 139.175 150.785 136.975 146.12C133.208 138.131 129.676 131.289 128.19 128.879C126.226 125.696 123.041 126.119 120.797 127.695Z" fill="#B28B67"/>
<path fill-rule="evenodd" clip-rule="evenodd" d="M145.119 163.818L130.094 128.224C126.494 122.433 116.402 129.402 117.629 132.76C120.416 140.385 134.59 165.068 135.42 167.339L145.119 163.818Z" fill="#DB6F58"/>
<path fill-rule="evenodd" clip-rule="evenodd" d="M110.87 132.287C110.87 142.376 115.292 166.091 115.295 168.313L126.008 167.951C124.135 147.332 123.345 136.953 123.639 136.813C124.298 136.499 150.683 140.465 158.596 140.764C170.007 141.196 174.728 134.196 175.111 120.911H153.007C134.107 123.167 121.685 124.736 115.741 125.619C111.924 126.185 110.87 129.507 110.87 132.287Z" fill="#F88167"/>
<path fill-rule="evenodd" clip-rule="evenodd" d="M146.024 168.991C146.712 169.99 147.123 170.763 147.26 171.309C147.426 171.975 147.557 172.973 147.653 174.304C146.882 174.496 139.947 176.225 126.85 179.491C125.864 177.838 125.936 176.796 127.065 176.363C128.194 175.93 129.13 175.56 129.871 175.253L138.466 168.532C138.631 168.403 138.87 168.432 138.999 168.597C139.001 168.6 139.004 168.603 139.006 168.606L140.003 169.958C141.207 170.193 142.146 170.226 142.82 170.058C143.367 169.921 144.069 169.511 144.923 168.828C145.251 168.566 145.73 168.62 145.992 168.948C146.003 168.962 146.014 168.976 146.024 168.991Z" fill="#E4E4E4"/>
<path fill-rule="evenodd" clip-rule="evenodd" d="M124.296 172.666C124.722 173.801 124.934 174.65 124.934 175.214C124.934 175.899 124.82 176.9 124.592 178.215C123.796 178.215 116.65 178.215 103.152 178.215C102.595 176.373 102.916 175.379 104.117 175.232C105.317 175.085 106.314 174.952 107.108 174.834L117.073 170.391C117.265 170.306 117.49 170.392 117.575 170.584C117.577 170.587 117.578 170.59 117.579 170.594L118.22 172.148C119.331 172.666 120.234 172.925 120.929 172.925C121.493 172.925 122.273 172.697 123.268 172.241C123.649 172.066 124.1 172.234 124.275 172.616C124.283 172.632 124.29 172.649 124.296 172.666Z" fill="#E4E4E4"/>
<path d="M105.738 178.215H123.224C123.958 178.215 124.554 178.81 124.554 179.545C124.554 180.28 123.958 180.876 123.224 180.876H105.738C105.003 180.876 104.408 180.28 104.408 179.545C104.408 178.81 105.003 178.215 105.738 178.215Z" fill="#2F3676"/>
<path fill-rule="evenodd" clip-rule="evenodd" d="M176.251 123.097H135.578C133.478 123.097 131.777 124.799 131.777 126.898V145.524H178.532C179.371 145.524 180.052 144.843 180.052 144.003V126.898C180.052 124.799 178.35 123.097 176.251 123.097Z" fill="#2F3676"/>
<path fill-rule="evenodd" clip-rule="evenodd" d="M135.578 123.097H134.744C132.882 123.097 131.294 124.445 130.993 126.282L122.654 177.074H126.715" fill="#2F3676"/>
<path d="M124.554 184.677C120.775 184.677 117.712 181.613 117.712 177.834C117.712 174.056 120.775 170.992 124.554 170.992C128.333 170.992 131.396 174.056 131.396 177.834C131.396 181.613 128.333 184.677 124.554 184.677Z" fill="#191847"/>
<path fill-rule="evenodd" clip-rule="evenodd" d="M175.111 183.917C191.066 183.917 204 170.982 204 155.027C204 139.072 191.066 126.138 175.111 126.138C159.155 126.138 146.221 139.072 146.221 155.027C146.221 170.982 159.155 183.917 175.111 183.917ZM175.111 178.595C162.095 178.595 151.543 168.043 151.543 155.027C151.543 142.011 162.095 131.459 175.111 131.459C188.127 131.459 198.678 142.011 198.678 155.027C198.678 168.043 188.127 178.595 175.111 178.595Z" fill="#191847"/>
<path d="M173.59 129.939H176.631V180.115H173.59V129.939Z" fill="#191847"/>
<path d="M156.833 137.825L157.908 136.749C158.205 136.453 158.686 136.453 158.983 136.749L193.388 171.154C193.685 171.451 193.685 171.933 193.388 172.23L192.313 173.305C192.016 173.602 191.535 173.602 191.238 173.305L156.833 138.9C156.536 138.603 156.536 138.122 156.833 137.825Z" fill="#191847"/>
<path d="M150.022 155.788V154.267C150.022 153.847 150.363 153.507 150.783 153.507H199.439C199.858 153.507 200.199 153.847 200.199 154.267V155.788C200.199 156.207 199.858 156.548 199.439 156.548H150.783C150.363 156.548 150.022 156.207 150.022 155.788Z" fill="#191847"/>
<path d="M157.908 173.305L156.833 172.229C156.536 171.933 156.536 171.451 156.833 171.154L191.238 136.749C191.535 136.453 192.016 136.453 192.313 136.749L193.388 137.825C193.685 138.121 193.685 138.603 193.388 138.9L158.983 173.305C158.687 173.602 158.205 173.602 157.908 173.305Z" fill="#191847"/>
<path fill-rule="evenodd" clip-rule="evenodd" d="M136.545 81.793L122.137 77.4678C119.449 75.3754 116.913 73.8456 114.531 72.8783C113.838 72.7478 112.691 72.8236 114.124 74.4498C115.558 76.0761 116.993 77.8512 116.583 78.5331C116.174 79.215 114.683 78.7009 114.251 79.7811C113.963 80.5012 116.434 81.017 121.663 81.3284L132.866 87.9213L136.545 81.793ZM137.818 107.196L125.693 116.1C122.404 116.987 119.656 118.091 117.45 119.412C116.929 119.887 116.299 120.848 118.46 120.682C120.622 120.516 122.903 120.438 123.201 121.176C123.5 121.913 122.191 122.795 122.794 123.789C123.196 124.453 125.095 122.79 128.491 118.801L140.498 113.822L137.818 107.196Z" fill="#B28B67"/>
<path fill-rule="evenodd" clip-rule="evenodd" d="M156.652 83.2169C150.049 95.529 140.5 104.967 126.658 114.778L131.899 120.688C147.355 114.944 155.512 111.479 159.518 99.8466C160.523 96.9271 161.226 87.6203 161.828 82.7235L156.652 83.2169Z" fill="#1E484A"/>
<path fill-rule="evenodd" clip-rule="evenodd" d="M175.517 123H146.248C152.878 102.78 156.265 88.9015 156.408 81.3658C156.416 80.9816 157.125 80.3046 157.439 80.3933C159.735 81.0416 162.191 80.7992 164.808 79.666C171.747 90.8258 174.147 104.566 175.517 123Z" fill="#F2F2F2"/>
<path fill-rule="evenodd" clip-rule="evenodd" d="M162.251 80.9211C153.861 80.9898 140.249 82.5219 124.55 77.4819L123 85.2264C134.865 92.8573 146.879 98.7685 157.407 97.9291C152.835 117.538 147.254 124.5 157.347 124.5C163.847 123.5 170.762 123 176.347 123C178.825 106.342 174.709 93.8362 168.67 82.1866C168.439 81.7417 167.948 80.903 166.792 80.903C165.784 80.903 164.272 80.903 162.257 80.903C162.255 80.9091 162.253 80.9151 162.251 80.9211Z" fill="#32858A"/>
<path fill-rule="evenodd" clip-rule="evenodd" d="M40.3172 25.6582C38.9731 22.8312 38.4017 19.655 39.4704 16.5538C42.5494 7.61849 54.6892 13.0185 55.9236 18.2754C57.1579 23.5324 53.7409 35.1125 50.3339 35.08C48.9752 35.0671 46.4828 33.5391 44.1722 31.1399L42.6231 43.8397L32.4104 41.1032L40.3172 25.6582Z" fill="#D4A181"/>
<path fill-rule="evenodd" clip-rule="evenodd" d="M44.0234 25.9652C42.1057 28.0568 39.8636 29.4181 38.1138 28.9492C34.7901 28.0586 33.6175 22.9817 34.8977 18.204C34.9427 18.0361 34.9907 17.8703 35.0416 17.7065C30.8793 19.1771 26.8953 23.2067 22.2433 21.9602C15.9141 20.2643 16.8212 6.82494 25.6639 9.19433C31.6776 10.8057 34.4007 12.4751 36.6026 14.4548C37.4852 13.172 38.5713 12.1857 39.7318 11.6047C40.0253 11.4112 40.4362 11.2609 40.9426 11.1553C41.2553 11.0791 41.5701 11.0332 41.8847 11.0195C43.5735 10.8665 45.9072 11.0646 48.418 11.6443C48.8868 11.7525 49.3443 11.87 49.7877 11.9953C50.423 9.65324 52.8339 8.26507 55.1796 8.89359C57.5297 9.5233 58.9244 11.939 58.2947 14.2891C57.6857 16.5619 55.4064 17.9411 53.1314 17.4598C51.7422 17.5119 50.0158 17.3609 48.1548 16.9936C48.1534 17.7087 48.0467 18.4928 47.8171 19.3497C47.6143 20.1064 47.3158 20.8865 46.9437 21.6601C46.6735 21.0825 46.2257 20.6329 45.6875 20.4887C44.1822 20.0854 42.8026 21.043 42.4502 22.3578C42.0031 24.0265 42.643 25.4918 44.0234 25.9652Z" fill="#191847"/>
<path fill-rule="evenodd" clip-rule="evenodd" d="M19.3838 80.0479L35.5212 135.656L43.1114 177.407H50.7297L43.125 80.0479H19.3838Z" fill="#BA8B72"/>
<path fill-rule="evenodd" clip-rule="evenodd" d="M12.1315 80.0479C13.2575 108.936 12.8134 124.692 12.5614 127.317C12.3094 129.942 10.8787 147.519 1.12939 178.288H9.05308C21.9644 148.771 26.4716 131.193 27.9524 127.317C29.4333 123.441 33.8068 107.685 40.192 80.0479H12.1315Z" fill="#D4A181"/>
<path fill-rule="evenodd" clip-rule="evenodd" d="M19.0374 80.0479C23.2349 99.1828 30.495 129.727 40.8174 171.68H51.96C52.783 128.619 49.282 100.278 43.2191 80.0479H19.0374Z" fill="#69A1AC"/>
<path fill-rule="evenodd" clip-rule="evenodd" d="M12.0752 80.0479C13.178 108.936 10.3201 137.396 1.46729 172.13H13.3558C26.2909 143.053 35.5619 114.733 41.8979 80.0479H12.0752Z" fill="#89C5CC"/>
<path fill-rule="evenodd" clip-rule="evenodd" d="M0 184.016L0.437203 176.967C2.99696 177.716 6.20312 177.422 10.0557 176.086C14.1981 179.02 19.4128 181.024 25.6999 182.097C26.1796 182.179 26.5021 182.634 26.4202 183.113C26.4149 183.145 26.408 183.175 26.3994 183.206L25.795 185.337H10.0557H0.874405L0 184.016Z" fill="#191847"/>
<path fill-rule="evenodd" clip-rule="evenodd" d="M41.4109 184.016L41.8481 176.967C44.4079 177.716 47.614 177.422 51.4665 176.086C55.609 179.02 60.8237 181.024 67.1108 182.097C67.5905 182.179 67.913 182.634 67.8311 183.113C67.8258 183.145 67.8189 183.175 67.8103 183.206L67.2058 185.337H51.4665H42.2853L41.4109 184.016Z" fill="#191847"/>
<path fill-rule="evenodd" clip-rule="evenodd" d="M50.9053 55.2824L67.4183 49.69C70.4468 47.1579 73.3214 45.2834 76.0419 44.0667C76.8393 43.8876 78.1711 43.9289 76.5764 45.8705C74.9818 47.8121 73.3917 49.926 73.8934 50.6993C74.395 51.4725 76.1016 50.8168 76.6452 52.0504C77.0076 52.8728 74.1667 53.5702 68.1224 54.1423L55.4138 62.2316L50.9053 55.2824ZM73.2631 66.3998L80.5185 63.9324C82.0693 60.5644 83.4921 58.9831 84.7868 59.1886C85.8598 58.9021 83.346 63.0601 85.294 63.0046C87.2421 62.9491 92.4317 60.3458 93.1001 61.178C94.0889 62.4092 92.4911 65.3726 90.9863 66.7215C88.1739 69.2427 86.0961 69.9081 81.1656 70.3898C78.5876 70.6416 75.6888 71.5465 72.4693 73.1042L73.2631 66.3998Z" fill="#D4A181"/>
<path fill-rule="evenodd" clip-rule="evenodd" d="M43.8955 52.1517C49.1798 53.026 56.4099 53.1522 64.7548 49.7117L66.5432 56.8042C60.4606 61.0289 52.4374 63.9664 46.1043 62.6655C41.1135 61.6402 39.6199 55.1214 43.8955 52.1517Z" fill="#2026A2"/>
<path fill-rule="evenodd" clip-rule="evenodd" d="M49.1389 63.9449C54.4923 66.3288 64.1728 66.3377 78.1806 63.9716C80.2573 71.3118 80.9184 76.4003 80.1639 79.2371C67.8153 83.1497 57.6598 84.0743 49.6449 82.8403C49.0632 87.6226 47.6917 92.0288 45.0283 95.8062C39.5528 103.572 17.6164 91.6179 9.50365 91.779C7.40532 74.9673 18.0417 70.1609 19.8484 59.9591C21.8269 48.7871 33.8313 33.1704 35.1514 33.4031L47.1892 35.5257C46.3488 44.1762 48.0336 54.1702 49.1389 63.9449Z" fill="#373FD7"/>
</svg>
